# xmcd
#
# Track frame offsets: 
#        183
#        13438
#        25723
#        37120
#        50405
#        65620
#        79273
#        96483
#        109783
#        119738
#
# Disc length: 1748 seconds
#
# Revision: 3
# Processed by: cddbd v1.5.2PL0 Copyright (c) Steve Scherf et al.
# Submitted via: ExactAudioCopy v1.3
#
DISCID=8f06d20a
DTITLE=Various Artist - Country Music Classics - Vol. 4 - 1970-1975
DYEAR=1990
DGENRE=Country
TTITLE0=Lynn Anderson - Rose Garden
TTITLE1=Merle Haggard - If We Make It Through December 
TTITLE2=Donna Fargo - The Happiest Girl In The Whole USA
TTITLE3=Charlie Rich - Behind Closed Doors
TTITLE4=Jessi Colter - I'm Not Lisa
TTITLE5=Conway Twitty - You've Never Been This Far Before
TTITLE6=Ray Price - For The Good Times
TTITLE7=Tanya Tucker - Delta Dawn
TTITLE8=Ray Stevens - Turn Your Radio On
TTITLE9=Sammi Smith - Help Me Make it though the Night
EXTD=YEAR: 1990
EXTT0=
EXTT1=
EXTT2=
EXTT3=
EXTT4=
EXTT5=
EXTT6=
EXTT7=
EXTT8=
EXTT9=
PLAYORDER=
